<?xml version="1.0" encoding="utf-8"?>
<!-- Generator: Adobe Illustrator 19.2.1, SVG Export Plug-In . SVG Version: 6.00 Build 0)  -->
<svg version="1.1" id="Layer_1" xmlns="http://www.w3.org/2000/svg" xmlns:xlink="http://www.w3.org/1999/xlink" x="0px" y="0px"
	 viewBox="0 0 108 90" style="enable-background:new 0 0 108 90;" xml:space="preserve">
<style type="text/css">
	.st0{fill:#4B5056;}
	.st1{fill:#414042;}
	.st2{fill:#EC7867;}
	.st3{fill:#EE7867;}
	.st4{fill:#F5C358;}
	.st5{fill:#C4C4C3;}
	.st6{fill:#FFFFFF;}
	.st7{fill:#D2D2D3;}
	.st8{fill:#303030;}
</style>
<rect x="34.4" y="15" class="st0" width="4.1" height="11.7"/>
<g>
	<path class="st1" d="M28.6,17.2c-1.8,0-3.2-1.4-3.2-3.2V9c0-1.8,1.4-3.2,3.2-3.2h15.2C45.6,5.8,47,7.2,47,9v5
		c0,1.8-1.4,3.2-3.2,3.2H28.6z"/>
	<path class="st2" d="M43.8,6.3c1.5,0,2.7,1.2,2.7,2.7v5c0,1.5-1.2,2.7-2.7,2.7H28.6c-1.5,0-2.7-1.2-2.7-2.7V9
		c0-1.5,1.2-2.7,2.7-2.7H43.8 M43.8,5.3H28.6c-2,0-3.7,1.7-3.7,3.7v5c0,2,1.7,3.7,3.7,3.7h15.2c2,0,3.7-1.7,3.7-3.7V9
		C47.5,7,45.9,5.3,43.8,5.3L43.8,5.3z"/>
</g>
<path class="st3" d="M79.3,40.2v-9.3c0-2.7-2.2-4.8-4.8-4.8h-21h-21c-2.7,0-4.8,2.2-4.8,4.8v9.3c0,1.6-0.7,3.1-1.9,4.1L13.8,54.4
	c-1,0.9-1.6,2.2-1.6,3.6v19c0,2.6,2.1,4.7,4.7,4.7h36.7h36.7c2.6,0,4.7-2.1,4.7-4.7V58c0-1.4-0.6-2.7-1.6-3.6L81.2,44.3
	C80,43.3,79.3,41.7,79.3,40.2z"/>
<path class="st4" d="M87,78H20c-2.2,0-4-1.8-4-4V62.8c0-2.2,1.8-4,4-4h67c2.2,0,4,1.8,4,4V74C91,76.2,89.2,78,87,78z"/>
<g>
	<g>
		<path class="st5" d="M80.8,49.8h2.4c0.4,0,0.4-0.3,0.1-0.6l-2-1.7c-0.3-0.3-0.8-0.5-1.2-0.5H78c-0.4,0-0.4,0.2-0.2,0.5l1.7,1.7
			C79.9,49.5,80.5,49.8,80.8,49.8z"/>
		<path class="st5" d="M74.6,49.8H77c0.4,0,0.5-0.3,0.2-0.6l-1.6-1.7c-0.2-0.3-0.7-0.5-1.1-0.5h-2.2c-0.4,0-0.5,0.2-0.3,0.5l1.3,1.7
			C73.7,49.5,74.2,49.8,74.6,49.8z"/>
		<path class="st5" d="M68.3,49.8h2.4c0.4,0,0.5-0.3,0.3-0.6l-1.2-1.7C69.7,47.2,69.3,47,69,47h-2.2c-0.4,0-0.5,0.2-0.4,0.5l0.9,1.7
			C67.4,49.5,67.9,49.8,68.3,49.8z"/>
		<path class="st5" d="M62,49.8h2.4c0.4,0,0.6-0.3,0.5-0.6l-0.7-1.7c-0.1-0.3-0.5-0.5-0.8-0.5h-2.2c-0.4,0-0.6,0.2-0.5,0.5l0.5,1.7
			C61.2,49.5,61.6,49.8,62,49.8z"/>
		<path class="st5" d="M55.7,49.8h2.4c0.4,0,0.7-0.3,0.6-0.6l-0.3-1.7c0-0.3-0.4-0.5-0.7-0.5h-2.2c-0.4,0-0.6,0.2-0.6,0.5l0.1,1.7
			C55,49.5,55.3,49.8,55.7,49.8z"/>
		<path class="st5" d="M49.5,49.8h2.4c0.4,0,0.7-0.3,0.7-0.6l0.1-1.7c0-0.3-0.3-0.5-0.6-0.5h-2.2c-0.4,0-0.7,0.2-0.7,0.5l-0.3,1.7
			C48.8,49.5,49.1,49.8,49.5,49.8z"/>
		<path class="st5" d="M43.2,49.8h2.4c0.4,0,0.8-0.3,0.9-0.6l0.5-1.7c0.1-0.3-0.2-0.5-0.5-0.5h-2.2c-0.4,0-0.7,0.2-0.8,0.5l-0.7,1.7
			C42.6,49.5,42.8,49.8,43.2,49.8z"/>
		<path class="st5" d="M36.9,49.8h2.4c0.4,0,0.8-0.3,1-0.6l0.9-1.7c0.1-0.3,0-0.5-0.4-0.5h-2.2c-0.4,0-0.8,0.2-0.9,0.5l-1.2,1.7
			C36.4,49.5,36.5,49.8,36.9,49.8z"/>
		<path class="st5" d="M30.6,49.8H33c0.4,0,0.9-0.3,1.1-0.6l1.3-1.7c0.2-0.3,0.1-0.5-0.3-0.5H33c-0.4,0-0.8,0.2-1.1,0.5l-1.6,1.7
			C30.1,49.5,30.2,49.8,30.6,49.8z"/>
		<path class="st5" d="M24.3,49.8h2.4c0.4,0,1-0.3,1.3-0.6l1.7-1.7c0.3-0.3,0.2-0.5-0.2-0.5h-2.2c-0.4,0-0.9,0.2-1.2,0.5l-2,1.7
			C23.9,49.5,23.9,49.8,24.3,49.8z"/>
		<path class="st5" d="M85.9,54.7h2.9c0.5,0,0.4-0.4,0-0.8L86,51.5c-0.4-0.3-1.1-0.6-1.5-0.6H82c-0.4,0-0.5,0.3-0.1,0.6l2.4,2.4
			C84.7,54.3,85.4,54.7,85.9,54.7z"/>
		<path class="st5" d="M78.5,54.7h2.9c0.5,0,0.5-0.4,0.1-0.8l-2.2-2.4c-0.3-0.3-0.9-0.6-1.3-0.6h-2.5c-0.4,0-0.5,0.3-0.3,0.6
			l1.8,2.4C77.3,54.3,78,54.7,78.5,54.7z"/>
		<path class="st5" d="M71,54.7h2.9c0.5,0,0.6-0.4,0.3-0.8l-1.6-2.4c-0.2-0.3-0.8-0.6-1.2-0.6h-2.5c-0.4,0-0.6,0.3-0.4,0.6l1.2,2.4
			C70,54.3,70.5,54.7,71,54.7z"/>
		<path class="st5" d="M63.5,54.7h2.9c0.5,0,0.7-0.4,0.5-0.8l-1-2.4c-0.2-0.3-0.6-0.6-1-0.6h-2.5c-0.4,0-0.7,0.3-0.6,0.6l0.7,2.4
			C62.6,54.3,63.1,54.7,63.5,54.7z"/>
		<path class="st5" d="M56.1,54.7H59c0.5,0,0.8-0.4,0.7-0.8l-0.5-2.4c-0.1-0.3-0.5-0.6-0.9-0.6h-2.5c-0.4,0-0.7,0.3-0.7,0.6l0.1,2.4
			C55.2,54.3,55.6,54.7,56.1,54.7z"/>
		<path class="st5" d="M48.6,54.7h2.9c0.5,0,0.9-0.4,0.9-0.8l0.1-2.4c0-0.3-0.3-0.6-0.7-0.6h-2.5c-0.4,0-0.8,0.3-0.9,0.6l-0.5,2.4
			C47.9,54.3,48.2,54.7,48.6,54.7z"/>
		<path class="st5" d="M41.2,54.7h2.9c0.5,0,0.9-0.4,1.1-0.8l0.7-2.4c0.1-0.3-0.2-0.6-0.6-0.6h-2.5c-0.4,0-0.9,0.3-1,0.6l-1,2.4
			C40.5,54.3,40.7,54.7,41.2,54.7z"/>
		<path class="st5" d="M33.7,54.7h2.9c0.5,0,1-0.4,1.2-0.8l1.2-2.4c0.2-0.3,0-0.6-0.4-0.6h-2.5c-0.4,0-0.9,0.3-1.2,0.6l-1.6,2.4
			C33.1,54.3,33.3,54.7,33.7,54.7z"/>
		<path class="st5" d="M26.3,54.7h2.9c0.5,0,1.1-0.4,1.4-0.8l1.8-2.4c0.3-0.3,0.1-0.6-0.3-0.6h-2.5c-0.4,0-1,0.3-1.3,0.6l-2.2,2.4
			C25.8,54.3,25.8,54.7,26.3,54.7z"/>
		<path class="st5" d="M18.8,54.7h2.9c0.5,0,1.2-0.4,1.6-0.8l2.4-2.4c0.3-0.3,0.3-0.6-0.1-0.6h-2.5c-0.4,0-1.1,0.3-1.5,0.6l-2.7,2.4
			C18.4,54.3,18.4,54.7,18.8,54.7z"/>
	</g>
	<g>
		<path class="st5" d="M80.8,49.5h2.4c0.4,0,0.4-0.3,0.1-0.6l-2-1.7c-0.3-0.3-0.8-0.5-1.2-0.5H78c-0.4,0-0.4,0.2-0.2,0.5l1.7,1.7
			C79.9,49.3,80.5,49.5,80.8,49.5z"/>
		<path class="st5" d="M74.6,49.5H77c0.4,0,0.5-0.3,0.2-0.6l-1.6-1.7c-0.2-0.3-0.7-0.5-1.1-0.5h-2.2c-0.4,0-0.5,0.2-0.3,0.5l1.3,1.7
			C73.7,49.3,74.2,49.5,74.6,49.5z"/>
		<path class="st5" d="M68.3,49.5h2.4c0.4,0,0.5-0.3,0.3-0.6l-1.2-1.7c-0.2-0.3-0.6-0.5-0.9-0.5h-2.2c-0.4,0-0.5,0.2-0.4,0.5
			l0.9,1.7C67.4,49.3,67.9,49.5,68.3,49.5z"/>
		<path class="st5" d="M62,49.5h2.4c0.4,0,0.6-0.3,0.5-0.6l-0.7-1.7c-0.1-0.3-0.5-0.5-0.8-0.5h-2.2c-0.4,0-0.6,0.2-0.5,0.5l0.5,1.7
			C61.2,49.3,61.6,49.5,62,49.5z"/>
		<path class="st5" d="M55.7,49.5h2.4c0.4,0,0.7-0.3,0.6-0.6l-0.3-1.7c0-0.3-0.4-0.5-0.7-0.5h-2.2c-0.4,0-0.6,0.2-0.6,0.5L55,49
			C55,49.3,55.3,49.5,55.7,49.5z"/>
		<path class="st5" d="M49.5,49.5h2.4c0.4,0,0.7-0.3,0.7-0.6l0.1-1.7c0-0.3-0.3-0.5-0.6-0.5h-2.2c-0.4,0-0.7,0.2-0.7,0.5L48.8,49
			C48.8,49.3,49.1,49.5,49.5,49.5z"/>
		<path class="st5" d="M43.2,49.5h2.4c0.4,0,0.8-0.3,0.9-0.6l0.5-1.7c0.1-0.3-0.2-0.5-0.5-0.5h-2.2c-0.4,0-0.7,0.2-0.8,0.5L42.7,49
			C42.6,49.3,42.8,49.5,43.2,49.5z"/>
		<path class="st5" d="M36.9,49.5h2.4c0.4,0,0.8-0.3,1-0.6l0.9-1.7c0.1-0.3,0-0.5-0.4-0.5h-2.2c-0.4,0-0.8,0.2-0.9,0.5L36.6,49
			C36.4,49.3,36.5,49.5,36.9,49.5z"/>
		<path class="st5" d="M30.6,49.5H33c0.4,0,0.9-0.3,1.1-0.6l1.3-1.7c0.2-0.3,0.1-0.5-0.3-0.5H33c-0.4,0-0.8,0.2-1.1,0.5L30.4,49
			C30.1,49.3,30.2,49.5,30.6,49.5z"/>
		<path class="st5" d="M24.3,49.5h2.4c0.4,0,1-0.3,1.3-0.6l1.7-1.7c0.3-0.3,0.2-0.5-0.2-0.5h-2.2c-0.4,0-0.9,0.2-1.2,0.5l-2,1.7
			C23.9,49.3,23.9,49.5,24.3,49.5z"/>
		<path class="st5" d="M85.9,54.4h2.9c0.5,0,0.4-0.4,0-0.8L86,51.3c-0.4-0.3-1.1-0.6-1.5-0.6H82c-0.4,0-0.5,0.3-0.1,0.6l2.4,2.4
			C84.7,54.1,85.4,54.4,85.9,54.4z"/>
		<path class="st5" d="M78.5,54.4h2.9c0.5,0,0.5-0.4,0.1-0.8l-2.2-2.4c-0.3-0.3-0.9-0.6-1.3-0.6h-2.5c-0.4,0-0.5,0.3-0.3,0.6
			l1.8,2.4C77.3,54.1,78,54.4,78.5,54.4z"/>
		<path class="st5" d="M71,54.4h2.9c0.5,0,0.6-0.4,0.3-0.8l-1.6-2.4c-0.2-0.3-0.8-0.6-1.2-0.6h-2.5c-0.4,0-0.6,0.3-0.4,0.6l1.2,2.4
			C70,54.1,70.5,54.4,71,54.4z"/>
		<path class="st5" d="M63.5,54.4h2.9c0.5,0,0.7-0.4,0.5-0.8l-1-2.4c-0.2-0.3-0.6-0.6-1-0.6h-2.5c-0.4,0-0.7,0.3-0.6,0.6l0.7,2.4
			C62.6,54.1,63.1,54.4,63.5,54.4z"/>
		<path class="st5" d="M56.1,54.4H59c0.5,0,0.8-0.4,0.7-0.8l-0.5-2.4c-0.1-0.3-0.5-0.6-0.9-0.6h-2.5c-0.4,0-0.7,0.3-0.7,0.6l0.1,2.4
			C55.2,54.1,55.6,54.4,56.1,54.4z"/>
		<path class="st5" d="M48.6,54.4h2.9c0.5,0,0.9-0.4,0.9-0.8l0.1-2.4c0-0.3-0.3-0.6-0.7-0.6h-2.5c-0.4,0-0.8,0.3-0.9,0.6l-0.5,2.4
			C47.9,54.1,48.2,54.4,48.6,54.4z"/>
		<path class="st5" d="M41.2,54.4h2.9c0.5,0,0.9-0.4,1.1-0.8l0.7-2.4c0.1-0.3-0.2-0.6-0.6-0.6h-2.5c-0.4,0-0.9,0.3-1,0.6l-1,2.4
			C40.5,54.1,40.7,54.4,41.2,54.4z"/>
		<path class="st5" d="M33.7,54.4h2.9c0.5,0,1-0.4,1.2-0.8l1.2-2.4c0.2-0.3,0-0.6-0.4-0.6h-2.5c-0.4,0-0.9,0.3-1.2,0.6l-1.6,2.4
			C33.1,54.1,33.3,54.4,33.7,54.4z"/>
		<path class="st5" d="M26.3,54.4h2.9c0.5,0,1.1-0.4,1.4-0.8l1.8-2.4c0.3-0.3,0.1-0.6-0.3-0.6h-2.5c-0.4,0-1,0.3-1.3,0.6l-2.2,2.4
			C25.8,54.1,25.8,54.4,26.3,54.4z"/>
		<path class="st5" d="M18.8,54.4h2.9c0.5,0,1.2-0.4,1.6-0.8l2.4-2.4c0.3-0.3,0.3-0.6-0.1-0.6h-2.5c-0.4,0-1.1,0.3-1.5,0.6l-2.7,2.4
			C18.4,54.1,18.4,54.4,18.8,54.4z"/>
	</g>
	<g>
		<path class="st5" d="M80.8,49.3h2.4c0.4,0,0.4-0.3,0.1-0.6l-2-1.7c-0.3-0.3-0.8-0.5-1.2-0.5H78c-0.4,0-0.4,0.2-0.2,0.5l1.7,1.7
			C79.9,49,80.5,49.3,80.8,49.3z"/>
		<path class="st5" d="M74.6,49.3H77c0.4,0,0.5-0.3,0.2-0.6L75.6,47c-0.2-0.3-0.7-0.5-1.1-0.5h-2.2c-0.4,0-0.5,0.2-0.3,0.5l1.3,1.7
			C73.7,49,74.2,49.3,74.6,49.3z"/>
		<path class="st5" d="M68.3,49.3h2.4c0.4,0,0.5-0.3,0.3-0.6L69.9,47c-0.2-0.3-0.6-0.5-0.9-0.5h-2.2c-0.4,0-0.5,0.2-0.4,0.5l0.9,1.7
			C67.4,49,67.9,49.3,68.3,49.3z"/>
		<path class="st5" d="M62,49.3h2.4c0.4,0,0.6-0.3,0.5-0.6L64.2,47c-0.1-0.3-0.5-0.5-0.8-0.5h-2.2c-0.4,0-0.6,0.2-0.5,0.5l0.5,1.7
			C61.2,49,61.6,49.3,62,49.3z"/>
		<path class="st5" d="M55.7,49.3h2.4c0.4,0,0.7-0.3,0.6-0.6L58.4,47c0-0.3-0.4-0.5-0.7-0.5h-2.2c-0.4,0-0.6,0.2-0.6,0.5l0.1,1.7
			C55,49,55.3,49.3,55.7,49.3z"/>
		<path class="st5" d="M49.5,49.3h2.4c0.4,0,0.7-0.3,0.7-0.6l0.1-1.7c0-0.3-0.3-0.5-0.6-0.5h-2.2c-0.4,0-0.7,0.2-0.7,0.5l-0.3,1.7
			C48.8,49,49.1,49.3,49.5,49.3z"/>
		<path class="st5" d="M43.2,49.3h2.4c0.4,0,0.8-0.3,0.9-0.6L47,47c0.1-0.3-0.2-0.5-0.5-0.5h-2.2c-0.4,0-0.7,0.2-0.8,0.5l-0.7,1.7
			C42.6,49,42.8,49.3,43.2,49.3z"/>
		<path class="st5" d="M36.9,49.3h2.4c0.4,0,0.8-0.3,1-0.6l0.9-1.7c0.1-0.3,0-0.5-0.4-0.5h-2.2c-0.4,0-0.8,0.2-0.9,0.5l-1.2,1.7
			C36.4,49,36.5,49.3,36.9,49.3z"/>
		<path class="st5" d="M30.6,49.3H33c0.4,0,0.9-0.3,1.1-0.6l1.3-1.7c0.2-0.3,0.1-0.5-0.3-0.5H33c-0.4,0-0.8,0.2-1.1,0.5l-1.6,1.7
			C30.1,49,30.2,49.3,30.6,49.3z"/>
		<path class="st5" d="M24.3,49.3h2.4c0.4,0,1-0.3,1.3-0.6l1.7-1.7c0.3-0.3,0.2-0.5-0.2-0.5h-2.2c-0.4,0-0.9,0.2-1.2,0.5l-2,1.7
			C23.9,49,23.9,49.3,24.3,49.3z"/>
		<path class="st5" d="M85.9,54.2h2.9c0.5,0,0.4-0.4,0-0.8L86,51.1c-0.4-0.3-1.1-0.6-1.5-0.6H82c-0.4,0-0.5,0.3-0.1,0.6l2.4,2.4
			C84.7,53.9,85.4,54.2,85.9,54.2z"/>
		<path class="st5" d="M78.5,54.2h2.9c0.5,0,0.5-0.4,0.1-0.8l-2.2-2.4c-0.3-0.3-0.9-0.6-1.3-0.6h-2.5c-0.4,0-0.5,0.3-0.3,0.6
			l1.8,2.4C77.3,53.9,78,54.2,78.5,54.2z"/>
		<path class="st5" d="M71,54.2h2.9c0.5,0,0.6-0.4,0.3-0.8l-1.6-2.4c-0.2-0.3-0.8-0.6-1.2-0.6h-2.5c-0.4,0-0.6,0.3-0.4,0.6l1.2,2.4
			C70,53.9,70.5,54.2,71,54.2z"/>
		<path class="st5" d="M63.5,54.2h2.9c0.5,0,0.7-0.4,0.5-0.8l-1-2.4c-0.2-0.3-0.6-0.6-1-0.6h-2.5c-0.4,0-0.7,0.3-0.6,0.6l0.7,2.4
			C62.6,53.9,63.1,54.2,63.5,54.2z"/>
		<path class="st5" d="M56.1,54.2H59c0.5,0,0.8-0.4,0.7-0.8l-0.5-2.4c-0.1-0.3-0.5-0.6-0.9-0.6h-2.5c-0.4,0-0.7,0.3-0.7,0.6l0.1,2.4
			C55.2,53.9,55.6,54.2,56.1,54.2z"/>
		<path class="st5" d="M48.6,54.2h2.9c0.5,0,0.9-0.4,0.9-0.8l0.1-2.4c0-0.3-0.3-0.6-0.7-0.6h-2.5c-0.4,0-0.8,0.3-0.9,0.6l-0.5,2.4
			C47.9,53.9,48.2,54.2,48.6,54.2z"/>
		<path class="st5" d="M41.2,54.2h2.9c0.5,0,0.9-0.4,1.1-0.8l0.7-2.4c0.1-0.3-0.2-0.6-0.6-0.6h-2.5c-0.4,0-0.9,0.3-1,0.6l-1,2.4
			C40.5,53.9,40.7,54.2,41.2,54.2z"/>
		<path class="st5" d="M33.7,54.2h2.9c0.5,0,1-0.4,1.2-0.8l1.2-2.4c0.2-0.3,0-0.6-0.4-0.6h-2.5c-0.4,0-0.9,0.3-1.2,0.6l-1.6,2.4
			C33.1,53.9,33.3,54.2,33.7,54.2z"/>
		<path class="st5" d="M26.3,54.2h2.9c0.5,0,1.1-0.4,1.4-0.8l1.8-2.4c0.3-0.3,0.1-0.6-0.3-0.6h-2.5c-0.4,0-1,0.3-1.3,0.6l-2.2,2.4
			C25.8,53.9,25.8,54.2,26.3,54.2z"/>
		<path class="st5" d="M18.8,54.2h2.9c0.5,0,1.2-0.4,1.6-0.8l2.4-2.4c0.3-0.3,0.3-0.6-0.1-0.6h-2.5c-0.4,0-1.1,0.3-1.5,0.6l-2.7,2.4
			C18.4,53.9,18.4,54.2,18.8,54.2z"/>
	</g>
	<g>
		<path class="st5" d="M80.8,49h2.4c0.4,0,0.4-0.3,0.1-0.6l-2-1.7c-0.3-0.3-0.8-0.5-1.2-0.5H78c-0.4,0-0.4,0.2-0.2,0.5l1.7,1.7
			C79.9,48.8,80.5,49,80.8,49z"/>
		<path class="st5" d="M74.6,49H77c0.4,0,0.5-0.3,0.2-0.6l-1.6-1.7c-0.2-0.3-0.7-0.5-1.1-0.5h-2.2c-0.4,0-0.5,0.2-0.3,0.5l1.3,1.7
			C73.7,48.8,74.2,49,74.6,49z"/>
		<path class="st5" d="M68.3,49h2.4c0.4,0,0.5-0.3,0.3-0.6l-1.2-1.7c-0.2-0.3-0.6-0.5-0.9-0.5h-2.2c-0.4,0-0.5,0.2-0.4,0.5l0.9,1.7
			C67.4,48.8,67.9,49,68.3,49z"/>
		<path class="st5" d="M62,49h2.4c0.4,0,0.6-0.3,0.5-0.6l-0.7-1.7c-0.1-0.3-0.5-0.5-0.8-0.5h-2.2c-0.4,0-0.6,0.2-0.5,0.5l0.5,1.7
			C61.2,48.8,61.6,49,62,49z"/>
		<path class="st5" d="M55.7,49h2.4c0.4,0,0.7-0.3,0.6-0.6l-0.3-1.7c0-0.3-0.4-0.5-0.7-0.5h-2.2c-0.4,0-0.6,0.2-0.6,0.5l0.1,1.7
			C55,48.8,55.3,49,55.7,49z"/>
		<path class="st5" d="M49.5,49h2.4c0.4,0,0.7-0.3,0.7-0.6l0.1-1.7c0-0.3-0.3-0.5-0.6-0.5h-2.2c-0.4,0-0.7,0.2-0.7,0.5l-0.3,1.7
			C48.8,48.8,49.1,49,49.5,49z"/>
		<path class="st5" d="M43.2,49h2.4c0.4,0,0.8-0.3,0.9-0.6l0.5-1.7c0.1-0.3-0.2-0.5-0.5-0.5h-2.2c-0.4,0-0.7,0.2-0.8,0.5l-0.7,1.7
			C42.6,48.8,42.8,49,43.2,49z"/>
		<path class="st5" d="M36.9,49h2.4c0.4,0,0.8-0.3,1-0.6l0.9-1.7c0.1-0.3,0-0.5-0.4-0.5h-2.2c-0.4,0-0.8,0.2-0.9,0.5l-1.2,1.7
			C36.4,48.8,36.5,49,36.9,49z"/>
		<path class="st5" d="M30.6,49H33c0.4,0,0.9-0.3,1.1-0.6l1.3-1.7c0.2-0.3,0.1-0.5-0.3-0.5H33c-0.4,0-0.8,0.2-1.1,0.5l-1.6,1.7
			C30.1,48.8,30.2,49,30.6,49z"/>
		<path class="st5" d="M24.3,49h2.4c0.4,0,1-0.3,1.3-0.6l1.7-1.7c0.3-0.3,0.2-0.5-0.2-0.5h-2.2c-0.4,0-0.9,0.2-1.2,0.5l-2,1.7
			C23.9,48.8,23.9,49,24.3,49z"/>
		<path class="st5" d="M85.9,54h2.9c0.5,0,0.4-0.4,0-0.8L86,50.8c-0.4-0.3-1.1-0.6-1.5-0.6H82c-0.4,0-0.5,0.3-0.1,0.6l2.4,2.4
			C84.7,53.6,85.4,54,85.9,54z"/>
		<path class="st5" d="M78.5,54h2.9c0.5,0,0.5-0.4,0.1-0.8l-2.2-2.4c-0.3-0.3-0.9-0.6-1.3-0.6h-2.5c-0.4,0-0.5,0.3-0.3,0.6l1.8,2.4
			C77.3,53.6,78,54,78.5,54z"/>
		<path class="st5" d="M71,54h2.9c0.5,0,0.6-0.4,0.3-0.8l-1.6-2.4c-0.2-0.3-0.8-0.6-1.2-0.6h-2.5c-0.4,0-0.6,0.3-0.4,0.6l1.2,2.4
			C70,53.6,70.5,54,71,54z"/>
		<path class="st5" d="M63.5,54h2.9c0.5,0,0.7-0.4,0.5-0.8l-1-2.4c-0.2-0.3-0.6-0.6-1-0.6h-2.5c-0.4,0-0.7,0.3-0.6,0.6l0.7,2.4
			C62.6,53.6,63.1,54,63.5,54z"/>
		<path class="st5" d="M56.1,54H59c0.5,0,0.8-0.4,0.7-0.8l-0.5-2.4c-0.1-0.3-0.5-0.6-0.9-0.6h-2.5c-0.4,0-0.7,0.3-0.7,0.6l0.1,2.4
			C55.2,53.6,55.6,54,56.1,54z"/>
		<path class="st5" d="M48.6,54h2.9c0.5,0,0.9-0.4,0.9-0.8l0.1-2.4c0-0.3-0.3-0.6-0.7-0.6h-2.5c-0.4,0-0.8,0.3-0.9,0.6l-0.5,2.4
			C47.9,53.6,48.2,54,48.6,54z"/>
		<path class="st5" d="M41.2,54h2.9c0.5,0,0.9-0.4,1.1-0.8l0.7-2.4c0.1-0.3-0.2-0.6-0.6-0.6h-2.5c-0.4,0-0.9,0.3-1,0.6l-1,2.4
			C40.5,53.6,40.7,54,41.2,54z"/>
		<path class="st5" d="M33.7,54h2.9c0.5,0,1-0.4,1.2-0.8l1.2-2.4c0.2-0.3,0-0.6-0.4-0.6h-2.5c-0.4,0-0.9,0.3-1.2,0.6l-1.6,2.4
			C33.1,53.6,33.3,54,33.7,54z"/>
		<path class="st5" d="M26.3,54h2.9c0.5,0,1.1-0.4,1.4-0.8l1.8-2.4c0.3-0.3,0.1-0.6-0.3-0.6h-2.5c-0.4,0-1,0.3-1.3,0.6l-2.2,2.4
			C25.8,53.6,25.8,54,26.3,54z"/>
		<path class="st5" d="M18.8,54h2.9c0.5,0,1.2-0.4,1.6-0.8l2.4-2.4c0.3-0.3,0.3-0.6-0.1-0.6h-2.5c-0.4,0-1.1,0.3-1.5,0.6l-2.7,2.4
			C18.4,53.6,18.4,54,18.8,54z"/>
	</g>
	<g>
		<path class="st6" d="M80.8,48.9h2.4c0.4,0,0.4-0.3,0.1-0.6l-2-1.7c-0.3-0.3-0.8-0.5-1.2-0.5H78c-0.4,0-0.4,0.2-0.2,0.5l1.7,1.7
			C79.9,48.6,80.5,48.9,80.8,48.9z"/>
		<path class="st6" d="M74.6,48.9H77c0.4,0,0.5-0.3,0.2-0.6l-1.6-1.7c-0.2-0.3-0.7-0.5-1.1-0.5h-2.2c-0.4,0-0.5,0.2-0.3,0.5l1.3,1.7
			C73.7,48.6,74.2,48.9,74.6,48.9z"/>
		<path class="st6" d="M68.3,48.9h2.4c0.4,0,0.5-0.3,0.3-0.6l-1.2-1.7c-0.2-0.3-0.6-0.5-0.9-0.5h-2.2c-0.4,0-0.5,0.2-0.4,0.5
			l0.9,1.7C67.4,48.6,67.9,48.9,68.3,48.9z"/>
		<path class="st6" d="M62,48.9h2.4c0.4,0,0.6-0.3,0.5-0.6l-0.7-1.7c-0.1-0.3-0.5-0.5-0.8-0.5h-2.2c-0.4,0-0.6,0.2-0.5,0.5l0.5,1.7
			C61.2,48.6,61.6,48.9,62,48.9z"/>
		<path class="st6" d="M55.7,48.9h2.4c0.4,0,0.7-0.3,0.6-0.6l-0.3-1.7c0-0.3-0.4-0.5-0.7-0.5h-2.2c-0.4,0-0.6,0.2-0.6,0.5l0.1,1.7
			C55,48.6,55.3,48.9,55.7,48.9z"/>
		<path class="st6" d="M49.5,48.9h2.4c0.4,0,0.7-0.3,0.7-0.6l0.1-1.7c0-0.3-0.3-0.5-0.6-0.5h-2.2c-0.4,0-0.7,0.2-0.7,0.5l-0.3,1.7
			C48.8,48.6,49.1,48.9,49.5,48.9z"/>
		<path class="st6" d="M43.2,48.9h2.4c0.4,0,0.8-0.3,0.9-0.6l0.5-1.7c0.1-0.3-0.2-0.5-0.5-0.5h-2.2c-0.4,0-0.7,0.2-0.8,0.5l-0.7,1.7
			C42.6,48.6,42.8,48.9,43.2,48.9z"/>
		<path class="st6" d="M36.9,48.9h2.4c0.4,0,0.8-0.3,1-0.6l0.9-1.7c0.1-0.3,0-0.5-0.4-0.5h-2.2c-0.4,0-0.8,0.2-0.9,0.5l-1.2,1.7
			C36.4,48.6,36.5,48.9,36.9,48.9z"/>
		<path class="st6" d="M30.6,48.9H33c0.4,0,0.9-0.3,1.1-0.6l1.3-1.7c0.2-0.3,0.1-0.5-0.3-0.5H33c-0.4,0-0.8,0.2-1.1,0.5l-1.6,1.7
			C30.1,48.6,30.2,48.9,30.6,48.9z"/>
		<path class="st6" d="M24.3,48.9h2.4c0.4,0,1-0.3,1.3-0.6l1.7-1.7c0.3-0.3,0.2-0.5-0.2-0.5h-2.2c-0.4,0-0.9,0.2-1.2,0.5l-2,1.7
			C23.9,48.6,23.9,48.9,24.3,48.9z"/>
		<path class="st6" d="M85.9,53.8h2.9c0.5,0,0.4-0.4,0-0.8L86,50.7C85.6,50.3,85,50,84.6,50H82c-0.4,0-0.5,0.3-0.1,0.6l2.4,2.4
			C84.7,53.5,85.4,53.8,85.9,53.8z"/>
		<path class="st6" d="M78.5,53.8h2.9c0.5,0,0.5-0.4,0.1-0.8l-2.2-2.4C79,50.3,78.4,50,78,50h-2.5c-0.4,0-0.5,0.3-0.3,0.6l1.8,2.4
			C77.3,53.5,78,53.8,78.5,53.8z"/>
		<path class="st6" d="M71,53.8h2.9c0.5,0,0.6-0.4,0.3-0.8l-1.6-2.4c-0.2-0.3-0.8-0.6-1.2-0.6h-2.5c-0.4,0-0.6,0.3-0.4,0.6l1.2,2.4
			C70,53.5,70.5,53.8,71,53.8z"/>
		<path class="st6" d="M63.5,53.8h2.9c0.5,0,0.7-0.4,0.5-0.8l-1-2.4c-0.2-0.3-0.6-0.6-1-0.6h-2.5c-0.4,0-0.7,0.3-0.6,0.6l0.7,2.4
			C62.6,53.5,63.1,53.8,63.5,53.8z"/>
		<path class="st6" d="M56.1,53.8H59c0.5,0,0.8-0.4,0.7-0.8l-0.5-2.4c-0.1-0.3-0.5-0.6-0.9-0.6h-2.5c-0.4,0-0.7,0.3-0.7,0.6l0.1,2.4
			C55.2,53.5,55.6,53.8,56.1,53.8z"/>
		<path class="st6" d="M48.6,53.8h2.9c0.5,0,0.9-0.4,0.9-0.8l0.1-2.4c0-0.3-0.3-0.6-0.7-0.6h-2.5c-0.4,0-0.8,0.3-0.9,0.6l-0.5,2.4
			C47.9,53.5,48.2,53.8,48.6,53.8z"/>
		<path class="st6" d="M41.2,53.8h2.9c0.5,0,0.9-0.4,1.1-0.8l0.7-2.4c0.1-0.3-0.2-0.6-0.6-0.6h-2.5c-0.4,0-0.9,0.3-1,0.6l-1,2.4
			C40.5,53.5,40.7,53.8,41.2,53.8z"/>
		<path class="st6" d="M33.7,53.8h2.9c0.5,0,1-0.4,1.2-0.8l1.2-2.4c0.2-0.3,0-0.6-0.4-0.6h-2.5c-0.4,0-0.9,0.3-1.2,0.6l-1.6,2.4
			C33.1,53.5,33.3,53.8,33.7,53.8z"/>
		<path class="st6" d="M26.3,53.8h2.9c0.5,0,1.1-0.4,1.4-0.8l1.8-2.4c0.3-0.3,0.1-0.6-0.3-0.6h-2.5c-0.4,0-1,0.3-1.3,0.6l-2.2,2.4
			C25.8,53.5,25.8,53.8,26.3,53.8z"/>
		<path class="st6" d="M18.8,53.8h2.9c0.5,0,1.2-0.4,1.6-0.8l2.4-2.4c0.3-0.3,0.3-0.6-0.1-0.6h-2.5c-0.4,0-1.1,0.3-1.5,0.6l-2.7,2.4
			C18.4,53.5,18.4,53.8,18.8,53.8z"/>
	</g>
</g>
<circle class="st6" cx="53.5" cy="68.4" r="4.8"/>
<path class="st3" d="M50.4,68.4L50.4,68.4c0,0.2,0.2,0.3,0.3,0.3h5.6c0.2,0,0.3-0.2,0.3-0.3l0,0c0-0.2-0.2-0.3-0.3-0.3h-5.6
	C50.5,68.1,50.4,68.2,50.4,68.4z"/>
<g>
	<path class="st0" d="M35.7,40.5c-1.3,0-2.3-1.1-2.3-2.4v-6.7c0-1.3,1.1-2.4,2.3-2.4h35.6c1.3,0,2.3,1.1,2.3,2.4v6.7
		c0,1.3-1.1,2.4-2.3,2.4H35.7z"/>
	<path class="st1" d="M71.3,29.5c1.1,0,2,0.9,2,2v6.7c0,1.1-0.9,2-2,2H35.7c-1.1,0-2-0.9-2-2v-6.7c0-1.1,0.9-2,2-2H71.3 M71.3,28.8
		H35.7c-1.5,0-2.7,1.2-2.7,2.7v6.7c0,1.5,1.2,2.7,2.7,2.7h35.6c1.5,0,2.7-1.2,2.7-2.7v-6.7C74,30,72.8,28.8,71.3,28.8L71.3,28.8z"/>
</g>
<path class="st0" d="M28.6,16.3c-1.3,0-2.3-1.1-2.3-2.4V9c0-1.3,1.1-2.4,2.3-2.4h15.2c1.3,0,2.3,1.1,2.3,2.4v5
	c0,1.3-1.1,2.4-2.3,2.4H28.6z"/>
<polygon class="st7" points="67.9,11.8 67,10.9 67,10.9 66.1,11.8 65.2,10.9 65.2,10.9 64.3,11.8 63.4,10.9 63.4,10.9 62.5,11.8 
	61.6,10.9 61.6,10.9 60.7,11.8 59.8,10.9 59.8,10.9 59,11.8 58.1,10.9 58.1,10.9 57.2,11.8 56.8,11.5 56.8,26 68.7,26 68.7,10.9 "/>
<rect x="57.9" y="14" class="st8" width="9.7" height="0.4"/>
<rect x="57.9" y="15.5" class="st8" width="6.4" height="0.4"/>
<rect x="57.9" y="16.9" class="st8" width="8.6" height="0.4"/>
<rect x="57.9" y="18.4" class="st8" width="5.4" height="0.4"/>
<rect x="57.9" y="19.8" class="st8" width="9.7" height="0.4"/>
<rect x="57.9" y="21.3" class="st8" width="8.2" height="0.4"/>
<rect x="57.9" y="22.8" class="st8" width="9.7" height="0.4"/>
<rect x="57.9" y="24.2" class="st8" width="8.2" height="0.4"/>
<g>
	<path class="st4" d="M47.8,31.9c0.7,0,1.2,0.3,1.5,0.8s0.5,1.4,0.5,2.5c0,1.1-0.2,1.9-0.5,2.4c-0.3,0.6-0.9,0.8-1.5,0.8
		c-0.7,0-1.2-0.3-1.5-0.8c-0.3-0.6-0.5-1.4-0.5-2.4c0-1.1,0.2-1.9,0.5-2.5S47.1,31.9,47.8,31.9z M47.8,32.6c-0.4,0-0.7,0.2-0.9,0.6
		s-0.3,1.1-0.3,2c0,0.9,0.1,1.5,0.3,2s0.5,0.6,0.9,0.6c0.4,0,0.7-0.2,0.9-0.6s0.3-1.1,0.3-2c0-0.9-0.1-1.5-0.3-2
		S48.2,32.6,47.8,32.6z M47.2,35.2c0-0.2,0.1-0.3,0.2-0.4c0.1-0.1,0.2-0.2,0.4-0.2c0.2,0,0.3,0.1,0.4,0.2c0.1,0.1,0.2,0.2,0.2,0.4
		c0,0.2-0.1,0.3-0.2,0.4c-0.1,0.1-0.2,0.2-0.4,0.2c-0.2,0-0.3-0.1-0.4-0.2C47.3,35.5,47.2,35.3,47.2,35.2z"/>
	<path class="st4" d="M53,31.9c0.7,0,1.2,0.3,1.5,0.8s0.5,1.4,0.5,2.5c0,1.1-0.2,1.9-0.5,2.4c-0.3,0.6-0.9,0.8-1.5,0.8
		c-0.7,0-1.2-0.3-1.5-0.8c-0.3-0.6-0.5-1.4-0.5-2.4c0-1.1,0.2-1.9,0.5-2.5S52.3,31.9,53,31.9z M53,32.6c-0.4,0-0.7,0.2-0.9,0.6
		s-0.3,1.1-0.3,2c0,0.9,0.1,1.5,0.3,2s0.5,0.6,0.9,0.6c0.4,0,0.7-0.2,0.9-0.6s0.3-1.1,0.3-2c0-0.9-0.1-1.5-0.3-2S53.4,32.6,53,32.6z
		 M52.5,35.2c0-0.2,0.1-0.3,0.2-0.4c0.1-0.1,0.2-0.2,0.4-0.2c0.2,0,0.3,0.1,0.4,0.2c0.1,0.1,0.2,0.2,0.2,0.4c0,0.2-0.1,0.3-0.2,0.4
		c-0.1,0.1-0.2,0.2-0.4,0.2c-0.2,0-0.3-0.1-0.4-0.2C52.5,35.5,52.5,35.3,52.5,35.2z"/>
	<path class="st4" d="M57.7,37.1h1.1v1.3h-1.1V37.1z"/>
	<path class="st4" d="M63.5,31.9c0.7,0,1.2,0.3,1.5,0.8s0.5,1.4,0.5,2.5c0,1.1-0.2,1.9-0.5,2.4c-0.3,0.6-0.9,0.8-1.5,0.8
		c-0.7,0-1.2-0.3-1.5-0.8c-0.3-0.6-0.5-1.4-0.5-2.4c0-1.1,0.2-1.9,0.5-2.5S62.8,31.9,63.5,31.9z M63.5,32.6c-0.4,0-0.7,0.2-0.9,0.6
		s-0.3,1.1-0.3,2c0,0.9,0.1,1.5,0.3,2s0.5,0.6,0.9,0.6c0.4,0,0.7-0.2,0.9-0.6s0.3-1.1,0.3-2c0-0.9-0.1-1.5-0.3-2
		S63.9,32.6,63.5,32.6z M62.9,35.2c0-0.2,0.1-0.3,0.2-0.4c0.1-0.1,0.2-0.2,0.4-0.2c0.2,0,0.3,0.1,0.4,0.2C64,34.9,64,35,64,35.2
		c0,0.2-0.1,0.3-0.2,0.4c-0.1,0.1-0.2,0.2-0.4,0.2c-0.2,0-0.3-0.1-0.4-0.2C62.9,35.5,62.9,35.3,62.9,35.2z"/>
	<path class="st4" d="M68.7,31.9c0.7,0,1.2,0.3,1.5,0.8s0.5,1.4,0.5,2.5c0,1.1-0.2,1.9-0.5,2.4c-0.3,0.6-0.9,0.8-1.5,0.8
		c-0.7,0-1.2-0.3-1.5-0.8c-0.3-0.6-0.5-1.4-0.5-2.4c0-1.1,0.2-1.9,0.5-2.5S68,31.9,68.7,31.9z M68.7,32.6c-0.4,0-0.7,0.2-0.9,0.6
		s-0.3,1.1-0.3,2c0,0.9,0.1,1.5,0.3,2s0.5,0.6,0.9,0.6c0.4,0,0.7-0.2,0.9-0.6s0.3-1.1,0.3-2c0-0.9-0.1-1.5-0.3-2
		S69.1,32.6,68.7,32.6z M68.1,35.2c0-0.2,0.1-0.3,0.2-0.4c0.1-0.1,0.2-0.2,0.4-0.2c0.2,0,0.3,0.1,0.4,0.2c0.1,0.1,0.2,0.2,0.2,0.4
		c0,0.2-0.1,0.3-0.2,0.4c-0.1,0.1-0.2,0.2-0.4,0.2c-0.2,0-0.3-0.1-0.4-0.2C68.2,35.5,68.1,35.3,68.1,35.2z"/>
</g>
<g>
	<path class="st6" d="M32.2,9v0.6c-0.2-0.1-0.3-0.2-0.5-0.2c-0.2-0.1-0.3-0.1-0.5-0.1c-0.3,0-0.5,0.1-0.6,0.2
		c-0.2,0.1-0.2,0.3-0.2,0.5c0,0.2,0,0.3,0.1,0.4s0.3,0.2,0.6,0.2l0.3,0.1c0.4,0.1,0.7,0.2,0.8,0.4c0.2,0.2,0.3,0.4,0.3,0.8
		c0,0.4-0.1,0.7-0.4,0.9c-0.2,0.2-0.6,0.3-1,0.3c-0.2,0-0.4,0-0.6-0.1s-0.4-0.1-0.6-0.2v-0.6c0.2,0.1,0.4,0.2,0.6,0.3
		c0.2,0.1,0.4,0.1,0.6,0.1c0.3,0,0.5-0.1,0.6-0.2c0.2-0.1,0.2-0.3,0.2-0.5c0-0.2-0.1-0.4-0.2-0.5c-0.1-0.1-0.3-0.2-0.6-0.2l-0.3-0.1
		c-0.4-0.1-0.6-0.2-0.8-0.4s-0.3-0.4-0.3-0.7c0-0.4,0.1-0.7,0.4-0.9c0.2-0.2,0.6-0.3,1-0.3c0.2,0,0.3,0,0.5,0.1
		C31.8,8.9,32,8.9,32.2,9z"/>
	<path class="st6" d="M34.1,8.9h0.7l1.2,4h-0.6l-0.3-1.1h-1.4l-0.3,1.1h-0.6L34.1,8.9z M34.5,9.4l-0.6,2.1H35L34.5,9.4z"/>
	<path class="st6" d="M36.7,8.9h0.5v3.6h2v0.5h-2.5V8.9z"/>
	<path class="st6" d="M40,8.9h2.4v0.5h-1.9v1.2h1.8V11h-1.8v1.5h1.9v0.5H40V8.9z"/>
</g>
</svg>
