<?xml version="1.0" encoding="utf-8"?>
<!-- Generator: Adobe Illustrator 19.2.1, SVG Export Plug-In . SVG Version: 6.00 Build 0)  -->
<svg version="1.1" id="Layer_1" xmlns="http://www.w3.org/2000/svg" xmlns:xlink="http://www.w3.org/1999/xlink" x="0px" y="0px"
	 viewBox="0 0 500 500" style="enable-background:new 0 0 500 500;" xml:space="preserve">
<style type="text/css">
	.st0{fill:#9E9E9E;}
	.st1{fill:#1ABC9C;}
	.st2{fill:#2C3E50;}
	.st3{fill:#364C62;}
	.st4{fill:#16A085;}
	.st5{fill:#DBDBDB;}
	.st6{fill:#7AACCE;}
	.st7{opacity:0.45;}
	.st8{fill:#FFFFFF;}
</style>
<rect x="36.4" y="108.3" class="st0" width="427.3" height="371.9"/>
<path class="st1" d="M139.2,108.3H31.4c-1.5,0-2.6-1.4-2.2-2.9l32.2-69.8c4-8.7,12.8-14.3,22.4-14.3h71.3L139.2,108.3z M139.2,108.3
	"/>
<path class="st1" d="M360.8,108.3H250V21.2h95L360.8,108.3z M360.8,108.3"/>
<path class="st2" d="M194.7,219.1c-30.6,0-55.4-24.8-55.4-55.4v-55.4H250v55.4C250,194.2,225.2,219.1,194.7,219.1L194.7,219.1z
	 M194.7,219.1"/>
<path class="st2" d="M416.2,219.1c-30.6,0-55.4-24.8-55.4-55.4v-55.4h110c0.5,0,0.9,0.4,0.9,0.9v54.5
	C471.6,194.2,446.8,219.1,416.2,219.1L416.2,219.1z M416.2,219.1"/>
<path class="st3" d="M250,108.3H139.2l15.8-87.1H250V108.3z M250,108.3"/>
<path class="st3" d="M468.8,108.3h-108L345,21.2h71.3c9.6,0,18.4,5.6,22.4,14.4l32.2,70C471.2,106.9,470.2,108.3,468.8,108.3
	L468.8,108.3z M468.8,108.3"/>
<path class="st4" d="M83.8,219.1c-30.6,0-55.4-24.8-55.4-55.4v-53.1c0-1.2,1-2.2,2.2-2.2h108.5v55.4
	C139.2,194.2,114.4,219.1,83.8,219.1L83.8,219.1z M83.8,219.1"/>
<path class="st4" d="M305.4,219.1c-30.6,0-55.4-24.8-55.4-55.4v-55.4h110.8v55.4C360.8,194.2,336.1,219.1,305.4,219.1L305.4,219.1z
	 M305.4,219.1"/>
<g>
	<rect x="88" y="294.4" class="st5" width="102.5" height="185.8"/>
	<rect x="100.8" y="307.2" class="st6" width="76.9" height="160.2"/>
	<path class="st2" d="M110.4,409.7c-2.4,0-4.4-2.9-4.4-6.4v-19.2c0-3.5,2-6.4,4.4-6.4c2.5,0,4.4,2.8,4.4,6.4v19.2
		C114.8,406.9,112.8,409.7,110.4,409.7L110.4,409.7z M110.4,409.7"/>
</g>
<rect x="209.2" y="243.7" class="st5" width="238.5" height="163.9"/>
<rect x="217.9" y="251.4" class="st6" width="221.1" height="148.5"/>
<g class="st7">
	<path class="st8" d="M319.3,306.1c2.3,0,4.7-0.8,6.5-2.3l36.9-31.3c3.6-3.1,3.6-8,0-11c-3.6-3.1-9.4-3.1-13,0l-36.8,31.3
		c-3.6,3.1-3.6,8,0,11C314.5,305.3,316.9,306.1,319.3,306.1L319.3,306.1z M319.3,306.1"/>
	<path class="st8" d="M319.3,345.2c2.3,0,4.7-0.8,6.5-2.3l18.4-15.6c3.6-3,3.6-8,0-11.1c-3.6-3.1-9.5-3.1-13,0l-18.4,15.6
		c-3.6,3.1-3.6,8,0,11C314.5,344.4,316.9,345.2,319.3,345.2L319.3,345.2z M319.3,345.2"/>
	<path class="st8" d="M349.5,300.6c-1.7,1.5-2.6,3.5-2.6,5.5c0,2.1,1,4.1,2.6,5.5c1.8,1.4,4.1,2.3,6.6,2.3c2.4,0,4.8-0.8,6.5-2.2
		c1.7-1.5,2.7-3.5,2.7-5.6c0-2-1-4-2.7-5.5C359.2,297.7,352.9,297.7,349.5,300.6L349.5,300.6z M349.5,300.6"/>
	<path class="st8" d="M368,296c1.8,1.5,4.1,2.3,6.5,2.3c2.4,0,4.7-0.8,6.5-2.3l27.7-23.5c3.6-3.1,3.6-8,0-11c-3.6-3.1-9.4-3.1-13,0
		L368,284.9C364.4,288,364.4,293,368,296L368,296z M368,296"/>
	<path class="st8" d="M417.4,284.5l-91,77.8c-3.9,3.4-3.9,8.8,0,12.2c2,1.7,4.5,2.5,7.2,2.5c2.6,0,5.1-0.8,7.1-2.5l91-77.8
		c4-3.4,4-8.8,0-12.2C427.8,281.2,421.3,281.2,417.4,284.5L417.4,284.5z M417.4,284.5"/>
</g>
</svg>
