<?xml version="1.0" encoding="utf-8"?>
<!-- Generator: Adobe Illustrator 19.2.1, SVG Export Plug-In . SVG Version: 6.00 Build 0)  -->
<svg version="1.1" id="Layer_1" xmlns="http://www.w3.org/2000/svg" xmlns:xlink="http://www.w3.org/1999/xlink" x="0px" y="0px"
	 viewBox="0 0 496.3 369.1" style="enable-background:new 0 0 496.3 369.1;" xml:space="preserve">
<style type="text/css">
	.st0{fill:#FCC482;}
	.st1{fill:#8E8E8E;}
	.st2{fill:#433423;}
	.st3{fill:#7E4F23;}
	.st4{fill:#FF483C;}
	.st5{fill:none;stroke:#FFFFFF;stroke-linecap:round;stroke-linejoin:round;}
	.st6{fill:none;stroke:#FFFFFF;stroke-linecap:round;stroke-linejoin:round;stroke-dasharray:5.1783,5.1783;}
	.st7{fill:none;stroke:#FFFFFF;stroke-linecap:round;stroke-linejoin:round;stroke-dasharray:4.9108,4.9108;}
	.st8{fill:#333333;}
	.st9{fill:#5D5D5D;}
	.st10{fill:#5B5F60;}
	.st11{fill:#604A1F;}
	.st12{fill:#3D3D3D;}
	.st13{fill:none;stroke:#3D3D3D;stroke-width:2;stroke-miterlimit:10;}
	.st14{fill:none;stroke:#3D3D3D;stroke-miterlimit:10;}
	.st15{fill:#262626;}
</style>
<g>
	
		<rect x="68.4" y="95.5" transform="matrix(0.1937 -0.9811 0.9811 0.1937 -39.2034 159.9616)" class="st0" width="18.7" height="16.7"/>
	<path class="st0" d="M61.7,91.9c-0.5,2.4,1.1,4.8,3.5,5.2l34.5,6.8c2.4,0.5,4.8-1.1,5.2-3.5l10-50.6c0.5-2.4-1.1-4.8-3.5-5.2
		L77,37.8c-2.4-0.5-4.8,1.1-5.2,3.5L61.7,91.9z"/>
	<path class="st1" d="M114.2,53.4c0,0-23-11.1-29.4-4.7s-1,18.8-1,18.8L81,81.7l-4.3-0.9l1.6-8.3c0,0-0.9-7.5-6.1-3.2
		C67,73.6,68.4,84.1,72.9,85c0,0-1.2,10.1-11.2,8.3c0,0-13-39.6,9.6-55.9c0,0,12.3-7.7,26.7-3.4C112.5,38.4,121.6,48.1,114.2,53.4z"
		/>
</g>
<g id="BACKGROUND">
</g>
<g id="OBJECTS">
	<g>
		<path class="st2" d="M308.3,357.8c0,3.3-2.6,5.9-5.9,5.9H193.9c-3.3,0-5.9-2.6-5.9-5.9l0,0c0-3.3,2.6-5.9,5.9-5.9h108.5
			C305.6,351.9,308.3,354.6,308.3,357.8L308.3,357.8z"/>
		<g>
			<path class="st3" d="M376.1,171c0,3.6-2.9,6.6-6.6,6.6H126.7c-3.6,0-6.6-2.9-6.6-6.6l0,0c0-3.6,2.9-6.6,6.6-6.6h242.8
				C373.2,164.5,376.1,167.4,376.1,171L376.1,171z"/>
			<path class="st2" d="M368,182.1c0,2.7-2.2,4.9-4.9,4.9h-230c-2.7,0-4.9-2.2-4.9-4.9l0,0c0-2.7,2.2-4.9,4.9-4.9h230
				C365.8,177.2,368,179.4,368,182.1L368,182.1z"/>
			<path class="st2" d="M328,363.7c0,2.7-2.2,4.9-4.9,4.9h-150c-2.7,0-4.9-2.2-4.9-4.9l0,0c0-2.7,2.2-4.9,4.9-4.9h150
				C325.8,358.8,328,361,328,363.7L328,363.7z"/>
			<path class="st2" d="M248.1,199c28.5,0,51.6-9.1,51.6-20.2H196.5C196.5,189.9,219.6,199,248.1,199z"/>
		</g>
		<path class="st2" d="M257.9,337.3c0,4-4.3,7.3-9.7,7.3l0,0c-5.4,0-9.7-3.3-9.7-7.3V186.1c0-4,4.3-7.3,9.7-7.3l0,0
			c5.4,0,9.7,3.3,9.7,7.3V337.3z"/>
		<path class="st2" d="M269.8,334.2h-43.4c0,6.9-5.6,12.4-12.4,12.4v8.3h68.2v-8.3C275.4,346.6,269.8,341.1,269.8,334.2z"/>
		<polygon class="st4" points="357.5,164.5 248.1,276.9 134.8,164.5 		"/>
		<g>
			<g>
				<line class="st5" x1="348.9" y1="165.5" x2="347.2" y2="167.3"/>
				<line class="st6" x1="343.6" y1="171" x2="251.5" y2="265.7"/>
				<polyline class="st5" points="249.7,267.5 248,269.3 246.2,267.5 				"/>
				<line class="st7" x1="242.7" y1="264.1" x2="146.9" y2="169"/>
				<line class="st5" x1="145.1" y1="167.2" x2="143.3" y2="165.5"/>
			</g>
		</g>
	</g>
	<g>
		<path class="st4" d="M478.4,238.4c0,4.5-3.7,8.2-8.2,8.2h-108c-4.5,0-8.2-3.7-8.2-8.2l0,0c0-4.5,3.7-8.2,8.2-8.2h108
			C474.7,230.3,478.4,233.9,478.4,238.4L478.4,238.4z"/>
		<path class="st2" d="M478.4,252.3c0,3.4-2.7,6.1-6.1,6.1H370.2c-3.4,0-6.1-2.7-6.1-6.1l0,0c0-3.4,2.7-6.1,6.1-6.1h102.1
			C475.7,246.2,478.4,248.9,478.4,252.3L478.4,252.3z"/>
	</g>
	<path class="st2" d="M479.2,251.9c-0.1,3.6-3.1,6.5-6.7,6.4l0,0c-3.6-0.1-6.5-3.1-6.4-6.8c1.3-43.2,6.9-86.2,16.7-128.4
		c0.8-3.6,4.4-5.8,7.9-5l0,0c3.5,0.9,5.7,4.4,4.8,7.9C486,167.4,480.5,209.5,479.2,251.9z"/>
	<g>
		<path class="st4" d="M17.9,238.4c0,4.5,3.7,8.2,8.2,8.2h108c4.5,0,8.2-3.7,8.2-8.2l0,0c0-4.5-3.7-8.2-8.2-8.2h-108
			C21.6,230.3,17.9,233.9,17.9,238.4L17.9,238.4z"/>
		<path class="st2" d="M17.9,252.3c0,3.4,2.7,6.1,6.1,6.1h102.1c3.4,0,6.1-2.7,6.1-6.1l0,0c0-3.4-2.7-6.1-6.1-6.1H24
			C20.6,246.2,17.9,248.9,17.9,252.3L17.9,252.3z"/>
	</g>
	<path class="st2" d="M17.1,251.9c0.1,3.6,3.1,6.5,6.7,6.4l0,0c3.6-0.1,6.5-3.1,6.4-6.8c-1.3-43.2-6.9-86.2-16.8-128.3
		c-0.8-3.6-4.4-5.8-7.9-5l0,0c-3.5,0.9-5.6,4.4-4.8,7.9C10.3,167.4,15.8,209.5,17.1,251.9z"/>
	<g>
		<path class="st2" d="M465.1,363.6h4.2c1.7,0,3-1.3,3-3V254.5c0-1.7-1.3-3-3-3h-4.2c-1.6,0-3,1.3-3,3v106.1
			C462.1,362.3,463.5,363.6,465.1,363.6z"/>
		<path class="st2" d="M374,363.6h4.2c1.6,0,3-1.3,3-3V254.5c0-1.7-1.4-3-3-3H374c-1.6,0-3,1.3-3,3v106.1
			C371,362.3,372.4,363.6,374,363.6z"/>
		<path class="st2" d="M373.6,312.4v1.9c0,1.7,1.4,3,3,3h87.6c1.6,0,3-1.3,3-3v-1.9c0-1.6-1.4-3-3-3h-87.6
			C375,309.4,373.6,310.7,373.6,312.4z"/>
		<path class="st2" d="M373.6,329.4v1.9c0,1.6,1.4,3,3,3h87.6c1.6,0,3-1.4,3-3v-1.9c0-1.6-1.4-3-3-3h-87.6
			C375,326.4,373.6,327.7,373.6,329.4z"/>
	</g>
	<g>
		<path class="st2" d="M118.5,363.6h4.2c1.7,0,3-1.3,3-3V254.5c0-1.7-1.3-3-3-3h-4.2c-1.7,0-3,1.3-3,3v106.1
			C115.5,362.3,116.8,363.6,118.5,363.6z"/>
		<path class="st2" d="M27.4,363.6h4.2c1.7,0,3-1.3,3-3V254.5c0-1.7-1.3-3-3-3h-4.2c-1.6,0-3,1.3-3,3v106.1
			C24.4,362.3,25.7,363.6,27.4,363.6z"/>
		<path class="st2" d="M27,312.4v1.9c0,1.7,1.4,3,3,3h87.6c1.7,0,3-1.3,3-3v-1.9c0-1.6-1.3-3-3-3H30C28.3,309.4,27,310.7,27,312.4z"
			/>
		<path class="st2" d="M27,329.4v1.9c0,1.6,1.4,3,3,3h87.6c1.7,0,3-1.4,3-3v-1.9c0-1.6-1.3-3-3-3H30C28.3,326.4,27,327.7,27,329.4z"
			/>
	</g>
</g>
<g id="DESIGNED_BY_FREEPIK">
</g>
<path class="st8" d="M47.2,193h35.4v11h61.9c7.4,0,13.3,4.9,13.3,11v2v2c0,6.1-6,11-13.3,11H62.7H47.2c-7.4,0-13.3-4.9-13.3-11v-15
	C33.9,197.9,39.8,193,47.2,193z"/>
<path class="st9" d="M35.1,203.4L47,118c0.8-6,6.4-10.2,12.4-9.4l29.5,4.1c6,0.8,10.2,6.4,9.4,12.4l-11.9,85.4L35.1,203.4z"/>
<path class="st8" d="M132,344.5V215c0-6.1,4.9-11,11-11h4.1c6.1,0,11,4.9,11,11v129.6c0,2.4-1.9,4.3-4.3,4.3h-17.6
	C133.9,348.8,132,346.9,132,344.5z"/>
<g>
	<path class="st10" d="M136.3,368.8c-2.3,0-4.3-1.8-4.3-4.1l0,0v-11.6c0-2.4,1.9-4.3,4.3-4.3h6.8h21.3c8.4,0,15.3,6.8,15.3,15.3v0.6
		l0,0c0,2.3-2,4.1-4.3,4.1H136.3z"/>
	<path class="st8" d="M179.6,364.3v0.4l0,0c0,2.3-2,4.1-4.3,4.1h-39c-2.3,0-4.3-1.8-4.3-4.1l0,0v-0.4H179.6z"/>
</g>
<path class="st11" d="M57.1,122.7c-4.8,3.7-5.3,11.1-1.2,16.4L93,186.6c4.1,5.3,11.4,6.6,16.2,2.8l3.2-2.5
	c4.8-3.8,5.3-11.1,1.2-16.4L76.5,123c-4.1-5.3-11.4-6.6-16.2-2.8L57.1,122.7z"/>
<path class="st0" d="M138.5,168.6l-0.1-0.6c-0.8-7.8,3.4-14.7,9.5-15.3l21-2.2c6.1-0.6,11.6,5.2,12.4,13.1l0.1,0.6L138.5,168.6z"/>
<path class="st11" d="M88.2,180.2c-2.2-5.7,0.7-12.1,6.4-14.2l50.6-19.1l9.2,24.4l-50.6,19.1c-5.7,2.1-12.1-0.7-14.2-6.4L88.2,180.2
	z"/>
<rect x="177.2" y="160.1" class="st8" width="66.8" height="4.4"/>
<rect x="219.2" y="130.2" transform="matrix(0.306 -0.952 0.952 0.306 49.5728 330.5272)" class="st8" width="64.5" height="2.2"/>
<path class="st12" d="M470.5,157.6c0,0,4.5,18.7,0.1,35.9s-3.4,35-16.8,36.6c-17.2,2.1-31.3,2-32.5-2.7s-13.4-8.1-1.2-24.9
	c12.2-16.8,26.8-21.9,28.4-30.3c1.6-8.4,6.1-18.6,13-19.1S470.5,157.6,470.5,157.6z"/>
<path class="st13" d="M469.7,158.6c0,0,4.5-10.8,0.1-13.7c-4.4-2.9-2,7.2-7.9,11.1"/>
<path class="st14" d="M466.7,159.4c0,0,4.5-10.8,0.1-13.7c-4.4-2.9-2,7.2-7.9,11.1"/>
<path class="st15" d="M437.6,184.8c0,0,8.2,5.3,14.3-1.8s9.3-20.3,9.3-20.3l-0.7-9.4c0,0-8.1,2.6-9.9,6.5
	c-1.8,3.9-12.8,18.5-13.7,20.9C436.1,183.2,437.6,184.8,437.6,184.8z"/>
</svg>
