<?xml version="1.0" encoding="UTF-8" standalone="no"?><!DOCTYPE svg PUBLIC "-//W3C//DTD SVG 1.1//EN" "http://www.w3.org/Graphics/SVG/1.1/DTD/svg11.dtd"><svg width="100%" height="100%" viewBox="0 0 497 370" version="1.1" xmlns="http://www.w3.org/2000/svg" xmlns:xlink="http://www.w3.org/1999/xlink" xml:space="preserve" style="fill-rule:evenodd;clip-rule:evenodd;stroke-linecap:round;stroke-linejoin:round;"><g><path d="M136.3,204.4l0,-0.6c0,-7.9 4.9,-14.3 11,-14.3l21.1,0c6.1,0 11,6.4 11,14.3l0,0.6l-43.1,0Z" style="fill:#fcc482;fill-rule:nonzero;"/><path d="M84.9,189.2c0,-6.1 4.9,-11 11,-11l54.1,0.1l0,26.1l-54.1,-0.1c-6.1,0 -11,-4.9 -11,-11l0,-4.1Z" style="fill:#0094bb;fill-rule:nonzero;"/></g><g id="OBJECTS"><g><path d="M308.3,357.8c0,3.3 -2.6,5.9 -5.9,5.9l-108.5,0c-3.3,0 -5.9,-2.6 -5.9,-5.9c0,-3.3 2.6,-5.9 5.9,-5.9l108.5,0c3.2,0 5.9,2.7 5.9,5.9Z" style="fill:#433423;fill-rule:nonzero;"/><g><path d="M376.1,171c0,3.6 -2.9,6.6 -6.6,6.6l-242.8,0c-3.6,0 -6.6,-2.9 -6.6,-6.6c0,-3.6 2.9,-6.6 6.6,-6.6l242.8,0c3.7,0.1 6.6,3 6.6,6.6Z" style="fill:#7e4f23;fill-rule:nonzero;"/><path d="M368,182.1c0,2.7 -2.2,4.9 -4.9,4.9l-230,0c-2.7,0 -4.9,-2.2 -4.9,-4.9c0,-2.7 2.2,-4.9 4.9,-4.9l230,0c2.7,0 4.9,2.2 4.9,4.9Z" style="fill:#433423;fill-rule:nonzero;"/><path d="M328,363.7c0,2.7 -2.2,4.9 -4.9,4.9l-150,0c-2.7,0 -4.9,-2.2 -4.9,-4.9c0,-2.7 2.2,-4.9 4.9,-4.9l150,0c2.7,0 4.9,2.2 4.9,4.9Z" style="fill:#433423;fill-rule:nonzero;"/><path d="M248.1,199c28.5,0 51.6,-9.1 51.6,-20.2l-103.2,0c0,11.1 23.1,20.2 51.6,20.2Z" style="fill:#433423;fill-rule:nonzero;"/></g><path d="M257.9,337.3c0,4 -4.3,7.3 -9.7,7.3c-5.4,0 -9.7,-3.3 -9.7,-7.3l0,-151.2c0,-4 4.3,-7.3 9.7,-7.3c5.4,0 9.7,3.3 9.7,7.3l0,151.2Z" style="fill:#433423;fill-rule:nonzero;"/><path d="M269.8,334.2l-43.4,0c0,6.9 -5.6,12.4 -12.4,12.4l0,8.3l68.2,0l0,-8.3c-6.8,0 -12.4,-5.5 -12.4,-12.4Z" style="fill:#433423;fill-rule:nonzero;"/><path d="M357.5,164.5l-109.4,112.4l-113.3,-112.4l222.7,0Z" style="fill:#ff483c;fill-rule:nonzero;"/><g><path d="M348.9,165.5l-1.7,1.8" style="fill:none;stroke:#fff;stroke-width:1px;"/><path d="M343.6,171l-92.1,94.7" style="fill:none;stroke:#fff;stroke-width:1px;stroke-dasharray:5.18,5.18;"/><path d="M249.7,267.5l-1.7,1.8l-1.8,-1.8" style="fill:none;stroke:#fff;stroke-width:1px;"/><path d="M242.7,264.1l-95.8,-95.1" style="fill:none;stroke:#fff;stroke-width:1px;stroke-dasharray:4.91,4.91;"/><path d="M145.1,167.2l-1.8,-1.7" style="fill:none;stroke:#fff;stroke-width:1px;"/></g></g><g><path d="M478.4,238.4c0,4.5 -3.7,8.2 -8.2,8.2l-108,0c-4.5,0 -8.2,-3.7 -8.2,-8.2c0,-4.5 3.7,-8.2 8.2,-8.2l108,0c4.5,0.1 8.2,3.7 8.2,8.2Z" style="fill:#ff483c;fill-rule:nonzero;"/><path d="M478.4,252.3c0,3.4 -2.7,6.1 -6.1,6.1l-102.1,0c-3.4,0 -6.1,-2.7 -6.1,-6.1c0,-3.4 2.7,-6.1 6.1,-6.1l102.1,0c3.4,0 6.1,2.7 6.1,6.1Z" style="fill:#433423;fill-rule:nonzero;"/></g><path d="M479.2,251.9c-0.1,3.6 -3.1,6.5 -6.7,6.4c-3.6,-0.1 -6.5,-3.1 -6.4,-6.8c1.3,-43.2 6.9,-86.2 16.7,-128.4c0.8,-3.6 4.4,-5.8 7.9,-5c3.5,0.9 5.7,4.4 4.8,7.9c-9.5,41.4 -15,83.5 -16.3,125.9Z" style="fill:#433423;fill-rule:nonzero;"/><g><path d="M17.9,238.4c0,4.5 3.7,8.2 8.2,8.2l108,0c4.5,0 8.2,-3.7 8.2,-8.2c0,-4.5 -3.7,-8.2 -8.2,-8.2l-108,0c-4.5,0.1 -8.2,3.7 -8.2,8.2Z" style="fill:#ff483c;fill-rule:nonzero;"/><path d="M17.9,252.3c0,3.4 2.7,6.1 6.1,6.1l102.1,0c3.4,0 6.1,-2.7 6.1,-6.1c0,-3.4 -2.7,-6.1 -6.1,-6.1l-102.1,0c-3.4,0 -6.1,2.7 -6.1,6.1Z" style="fill:#433423;fill-rule:nonzero;"/></g><path d="M17.1,251.9c0.1,3.6 3.1,6.5 6.7,6.4c3.6,-0.1 6.5,-3.1 6.4,-6.8c-1.3,-43.2 -6.9,-86.2 -16.8,-128.3c-0.8,-3.6 -4.4,-5.8 -7.9,-5c-3.5,0.9 -5.6,4.4 -4.8,7.9c9.6,41.3 15.1,83.4 16.4,125.8Z" style="fill:#433423;fill-rule:nonzero;"/><g><path d="M465.1,363.6l4.2,0c1.7,0 3,-1.3 3,-3l0,-106.1c0,-1.7 -1.3,-3 -3,-3l-4.2,0c-1.6,0 -3,1.3 -3,3l0,106.1c0,1.7 1.4,3 3,3Z" style="fill:#433423;fill-rule:nonzero;"/><path d="M374,363.6l4.2,0c1.6,0 3,-1.3 3,-3l0,-106.1c0,-1.7 -1.4,-3 -3,-3l-4.2,0c-1.6,0 -3,1.3 -3,3l0,106.1c0,1.7 1.4,3 3,3Z" style="fill:#433423;fill-rule:nonzero;"/><path d="M373.6,312.4l0,1.9c0,1.7 1.4,3 3,3l87.6,0c1.6,0 3,-1.3 3,-3l0,-1.9c0,-1.6 -1.4,-3 -3,-3l-87.6,0c-1.6,0 -3,1.3 -3,3Z" style="fill:#433423;fill-rule:nonzero;"/><path d="M373.6,329.4l0,1.9c0,1.6 1.4,3 3,3l87.6,0c1.6,0 3,-1.4 3,-3l0,-1.9c0,-1.6 -1.4,-3 -3,-3l-87.6,0c-1.6,0 -3,1.3 -3,3Z" style="fill:#433423;fill-rule:nonzero;"/></g><g><path d="M118.5,363.6l4.2,0c1.7,0 3,-1.3 3,-3l0,-106.1c0,-1.7 -1.3,-3 -3,-3l-4.2,0c-1.7,0 -3,1.3 -3,3l0,106.1c0,1.7 1.3,3 3,3Z" style="fill:#433423;fill-rule:nonzero;"/><path d="M27.4,363.6l4.2,0c1.7,0 3,-1.3 3,-3l0,-106.1c0,-1.7 -1.3,-3 -3,-3l-4.2,0c-1.6,0 -3,1.3 -3,3l0,106.1c0,1.7 1.3,3 3,3Z" style="fill:#433423;fill-rule:nonzero;"/><path d="M27,312.4l0,1.9c0,1.7 1.4,3 3,3l87.6,0c1.7,0 3,-1.3 3,-3l0,-1.9c0,-1.6 -1.3,-3 -3,-3l-87.6,0c-1.7,0 -3,1.3 -3,3Z" style="fill:#433423;fill-rule:nonzero;"/><path d="M27,329.4l0,1.9c0,1.6 1.4,3 3,3l87.6,0c1.7,0 3,-1.4 3,-3l0,-1.9c0,-1.6 -1.3,-3 -3,-3l-87.6,0c-1.7,0 -3,1.3 -3,3Z" style="fill:#433423;fill-rule:nonzero;"/></g></g><rect x="421.9" y="89.8" width="16.7" height="18.7" style="fill:#efc295;"/><path d="M307.18,98.299l-0.366,0.475c-4.829,6.252 -4.862,14.313 -0.034,18.041l16.7,12.897c4.828,3.728 12.618,1.657 17.446,-4.595l0.367,-0.475l-34.113,-26.343Z" style="fill:#efc295;fill-rule:nonzero;"/><path d="M300.966,88.217c-0.805,-0.644 -1.983,-0.512 -2.627,0.293l-2.334,2.92c-0.643,0.805 -0.512,1.983 0.293,2.627l32.66,26.106c0.805,0.643 1.982,0.511 2.626,-0.294l2.334,-2.92c0.644,-0.805 0.513,-1.982 -0.292,-2.626l-32.66,-26.106Z" style="stroke:#35312e;stroke-width:1px;stroke-miterlimit:1.5;"/><path d="M439.6,193l-35.4,0l0,11l-61.9,0c-7.4,0 -13.3,4.9 -13.3,11l0,4c0,6.1 6,11 13.3,11l97.3,0c7.4,0 13.3,-4.9 13.3,-11l0,-15c0,-6.1 -6,-11 -13.3,-11Z" style="fill:#333;fill-rule:nonzero;"/><path d="M452.9,203.9l0,-86.2c0,-6.1 -4.9,-11 -11,-11l-29.8,0c-6.1,0 -11,4.9 -11,11l0,86.2l51.8,0Z" style="fill:#002539;fill-rule:nonzero;"/><path d="M354.7,344.5l0,-129.5c0,-6.1 -4.9,-11 -11,-11l-4.1,0c-6.1,0 -11,4.9 -11,11l0,129.6c0,2.4 1.9,4.3 4.3,4.3l17.6,0c2.3,-0.1 4.2,-2 4.2,-4.4Z" style="fill:#333;fill-rule:nonzero;"/><path d="M311.6,328.8l48.4,-121c2.3,-5.7 -0.5,-12.1 -6.1,-14.4l-3.8,-1.5c-5.7,-2.3 -12.1,0.5 -14.4,6.2l-48.4,121c-0.9,2.2 0.2,4.7 2.4,5.6l16.3,6.5c2.2,0.9 4.7,-0.2 5.6,-2.4Z" style="fill:#333;fill-rule:nonzero;"/><g><path d="M350.5,368.8c2.3,0 4.3,-1.8 4.3,-4.1l0,-11.6c0,-2.4 -1.9,-4.3 -4.3,-4.3l-6.8,0l-21.3,0c-8.4,0 -15.3,6.8 -15.3,15.3l0,0.6c0,2.3 2,4.1 4.3,4.1l39.1,0Z" style="fill:#5b5f60;fill-rule:nonzero;"/><path d="M307.2,364.3l0,0.4c0,2.3 2,4.1 4.3,4.1l39,0c2.3,0 4.3,-1.8 4.3,-4.1l0,-0.4l-47.6,0Z" style="fill:#333;fill-rule:nonzero;"/></g><g><path d="M306.6,334.3c2.3,0 4.3,-1.8 4.3,-4.1l0,-11.6c0,-2.4 -1.9,-4.3 -4.3,-4.3l-6.8,0l-21.3,0c-8.4,0 -15.3,6.8 -15.3,15.3l0,0.6c0,2.3 2,4.1 4.3,4.1l39.1,0Z" style="fill:#5b5f60;fill-rule:nonzero;"/><path d="M263.3,329.8l0,0.4c0,2.3 2,4.1 4.3,4.1l39,0c2.3,0 4.3,-1.8 4.3,-4.1l0,-0.4l-47.6,0Z" style="fill:#333;fill-rule:nonzero;"/></g><path d="M441.4,123.3c2.8,5.4 0.7,12.1 -4.7,14.9l-48.4,25.2c-5.4,2.8 -12.1,0.7 -14.9,-4.7l-1.9,-3.6c-2.8,-5.4 -0.7,-12.1 4.7,-14.9l48.4,-25.2c5.4,-2.8 12.1,-0.7 14.9,4.7l1.9,3.6Z" style="fill:#ee3865;fill-rule:nonzero;"/><path d="M389.615,157.526c3.113,-5.246 1.399,-11.96 -3.847,-15.073l-46.578,-27.52l-13.318,22.447l46.578,27.519c5.246,3.113 11.96,1.399 15.073,-3.847l2.092,-3.526Z" style="fill:#ee3865;fill-rule:nonzero;"/><path d="M448.3,90.5c0,2.5 -2,4.5 -4.5,4.5l-14.7,0c-13.7,0 -24.9,-11.1 -24.9,-24.9l0,-31.1c0,-2.5 2,-4.5 4.5,-4.5l35.1,0c2.5,0 4.5,2 4.5,4.5l0,51.5Z" style="fill:#efc295;fill-rule:nonzero;"/><path d="M400.3,18.2c0,0 -10.5,15.6 3.9,24.4c0,0 24.7,-6.4 29.8,1c5.1,7.4 -2.7,18.6 -2.7,18.6l1.1,3.2l3.3,2.9l0,-0.1c0,0 2.3,-7.1 6.6,-1.9c4.3,5.2 -8.2,54 -12.9,54c0,0 29.2,2.5 42.5,-7.7c0,0 -7.4,-12.6 -13.5,-39.3c-3.6,-15.9 -2.6,-39.7 -7.2,-43.5c-11.6,-9.7 -37.8,-2.3 -39.6,-2.4c-1.7,-0.1 -13.1,1.2 -11.3,-9.2Z" style="fill:#35312e;fill-rule:nonzero;"/><rect x="48.1" y="89.8" width="16.7" height="18.7" style="fill:#fcc482;"/><path d="M47.2,193l35.4,0l0,11l61.9,0c7.4,0 13.3,4.9 13.3,11l0,4c0,6.1 -6,11 -13.3,11l-81.8,0l-15.5,0c-7.4,0 -13.3,-4.9 -13.3,-11l0,-15c0,-6.1 5.9,-11 13.3,-11Z" style="fill:#333;fill-rule:nonzero;"/><path d="M33.8,203.9l0,-86.2c0,-6.1 4.9,-11 11,-11l29.8,0c6.1,0 11,4.9 11,11l0,86.2l-51.8,0Z" style="fill:#09bfdf;fill-rule:nonzero;"/><path d="M132,344.5l0,-129.5c0,-6.1 4.9,-11 11,-11l4.1,0c6.1,0 11,4.9 11,11l0,129.6c0,2.4 -1.9,4.3 -4.3,4.3l-17.6,0c-2.3,-0.1 -4.2,-2 -4.2,-4.4Z" style="fill:#333;fill-rule:nonzero;"/><g><path d="M136.3,368.8c-2.3,0 -4.3,-1.8 -4.3,-4.1l0,-11.6c0,-2.4 1.9,-4.3 4.3,-4.3l28.1,0c8.4,0 15.3,6.8 15.3,15.3l0,0.6c0,2.3 -2,4.1 -4.3,4.1l-39.1,0Z" style="fill:#5b5f60;fill-rule:nonzero;"/><path d="M179.6,364.3l0,0.4c0,2.3 -2,4.1 -4.3,4.1l-39,0c-2.3,0 -4.3,-1.8 -4.3,-4.1l0,-0.4l47.6,0Z" style="fill:#333;fill-rule:nonzero;"/></g><path d="M46.5,133.3c-4.9,3.6 -5.6,11 -1.6,16.4l36.1,48.3c4,5.4 11.2,6.8 16.1,3.2l3.3,-2.4c4.9,-3.6 5.6,-11 1.6,-16.4l-36,-48.3c-4,-5.4 -11.2,-6.8 -16.1,-3.2l-3.4,2.4Z" style="fill:#0094bb;fill-rule:nonzero;"/><path d="M38.5,90.5c0,2.5 2,4.5 4.5,4.5l35.1,0c2.5,0 4.5,-2 4.5,-4.5l0,-51.5c0,-2.5 -2,-4.5 -4.5,-4.5l-35.2,0c-2.5,0 -4.5,2 -4.5,4.5l0,51.5l0.1,0Z" style="fill:#fcc482;fill-rule:nonzero;"/><path d="M86.4,18.2c0,0 10.5,15.6 -3.9,24.4c0,0 -24.7,-6.4 -29.8,1c-5.1,7.4 2.7,18.6 2.7,18.6l0,14.4l-4.4,0l0,-8.5c0,0 -2.3,-7.1 -6.6,-1.9c-4.3,5.2 -1,15.3 3.7,15.3c0,0 0.8,10.2 -9.4,10.3c0,0 -20.5,-36.3 -1.4,-56.7c0,0 -1.5,-12.5 13.5,-11c15,1.5 22.5,3.8 24.2,3.3c1.5,-0.5 4.8,-1.1 0.8,-7.3c0,0 2.7,1.9 4.5,4c1.3,1.7 7.9,4.5 6.1,-5.9Z" style="fill:#002539;fill-rule:nonzero;"/><path d="M460.688,295.289c0,0 4.5,18.7 0.1,35.9c-4.4,17.2 -3.4,35 -16.8,36.6c-17.2,2.1 -31.3,2 -32.5,-2.7c-1.2,-4.7 -13.4,-8.1 -1.2,-24.9c12.2,-16.8 26.8,-21.9 28.4,-30.3c1.6,-8.4 6.1,-18.6 13,-19.1c6.9,-0.5 9,4.5 9,4.5Z" style="fill:#ee3865;fill-rule:nonzero;"/><path d="M459.888,296.289c0,0 4.5,-10.8 0.1,-13.7c-4.4,-2.9 -2,7.2 -7.9,11.1" style="fill:none;stroke:#3d3d3d;stroke-width:2px;stroke-linecap:butt;stroke-linejoin:miter;stroke-miterlimit:10;"/><path d="M456.888,297.089c0,0 4.5,-10.8 0.1,-13.7c-4.4,-2.9 -2,7.2 -7.9,11.1" style="fill:none;stroke:#3d3d3d;stroke-width:1px;stroke-linecap:butt;stroke-linejoin:miter;stroke-miterlimit:10;"/><path d="M427.788,322.489c0,0 8.2,5.3 14.3,-1.8c6.1,-7.1 9.3,-20.3 9.3,-20.3l-0.7,-9.4c0,0 -8.1,2.6 -9.9,6.5c-1.8,3.9 -12.8,18.5 -13.7,20.9c-0.8,2.5 0.7,4.1 0.7,4.1Z" style="fill:#c52c54;fill-rule:nonzero;"/><path d="M340.7,217.6l63.7,13.3c3,0.6 6.4,-3.7 7.7,-9.7l0.8,-4c1.2,-6 -0.2,-11.3 -3.2,-11.9l-63.6,-13.3c-1.2,-0.2 -2.5,1.4 -3,3.7l-3.6,17.2c-0.5,2.4 0.1,4.4 1.2,4.7Z" style="fill:#333;fill-rule:nonzero;"/></svg>